<svg width="26" height="26" viewBox="0 0 26 26" fill="none" xmlns="http://www.w3.org/2000/svg">
<path d="M19.25 25.5C22.7018 25.5 25.5 22.7018 25.5 19.25C25.5 15.7982 22.7018 13 19.25 13C15.7982 13 13 15.7982 13 19.25C13 22.7018 15.7982 25.5 19.25 25.5Z" fill="#EDFF81"/>
<path d="M21.125 9.25C23.5412 9.25 25.5 7.29125 25.5 4.875C25.5 2.45875 23.5412 0.5 21.125 0.5C18.7088 0.5 16.75 2.45875 16.75 4.875C16.75 7.29125 18.7088 9.25 21.125 9.25Z" fill="white"/>
<path d="M4.9126 25.4625C7.32884 25.4625 9.2876 23.5038 9.2876 21.0875C9.2876 18.6713 7.32884 16.7125 4.9126 16.7125C2.49635 16.7125 0.537598 18.6713 0.537598 21.0875C0.537598 23.5038 2.49635 25.4625 4.9126 25.4625Z" fill="white"/>
<path d="M6.75 13C10.2018 13 13 10.2018 13 6.75C13 3.29822 10.2018 0.5 6.75 0.5C3.29822 0.5 0.5 3.29822 0.5 6.75C0.5 10.2018 3.29822 13 6.75 13Z" fill="#EDFF81"/>
</svg>
